<svg xmlns="http://www.w3.org/2000/svg" xmlns:xlink="http://www.w3.org/1999/xlink" width="500" zoomAndPan="magnify" viewBox="0 0 375 374.999991" height="500" preserveAspectRatio="xMidYMid meet" version="1.0"><defs><g/><clipPath id="f1142da581"><path d="M 174.589844 191.34375 L 344.839844 191.34375 L 344.839844 350 L 174.589844 350 Z M 174.589844 191.34375 " clip-rule="nonzero"/></clipPath></defs><rect x="-37.5" width="450" fill="#ffffff" y="-37.499999" height="449.999989" fill-opacity="1"/><rect x="-37.5" width="450" fill="#ffffff" y="-37.499999" height="449.999989" fill-opacity="1"/><g clip-path="url(#f1142da581)"><path fill="#003ed3" d="M 174.695312 251.945312 C 174.691406 236.246094 181.117188 220.5625 192.257812 209.539062 C 203.355469 198.5625 218.90625 191.800781 234.664062 191.976562 C 238.972656 191.976562 243.855469 191.351562 248.121094 191.976562 C 257.3125 193.320312 257.347656 202.535156 259.699219 210.707031 C 262.050781 218.875 262.085938 228.09375 271.277344 229.4375 C 275.539062 230.0625 280.421875 229.4375 284.734375 229.4375 C 300.492188 229.265625 316.039062 236.023438 327.136719 247.003906 C 338.277344 258.023438 344.617188 273.796875 344.703125 289.40625 C 344.789062 305.078125 338.117188 320.714844 327.136719 331.8125 C 316.117188 342.953125 300.433594 349.378906 284.734375 349.378906 C 280.421875 349.378906 275.539062 350 271.277344 349.378906 C 262.085938 348.035156 262.050781 338.816406 259.699219 330.644531 C 257.347656 322.476562 257.3125 313.257812 248.121094 311.914062 C 243.855469 311.292969 238.972656 311.914062 234.664062 311.914062 C 218.964844 311.917969 203.28125 305.492188 192.257812 294.351562 C 181.28125 283.253906 174.519531 267.703125 174.695312 251.945312 Z M 336.851562 289.40625 C 336.292969 275.066406 331.335938 262.304688 321.585938 252.554688 C 311.832031 242.800781 299.070312 237.847656 284.734375 237.289062 C 280.421875 237.289062 275.539062 237.914062 271.277344 237.289062 C 262.085938 235.949219 262.050781 226.730469 259.699219 218.558594 C 257.347656 210.390625 257.3125 201.171875 248.121094 199.828125 C 243.855469 199.207031 238.972656 199.828125 234.664062 199.828125 C 220.328125 200.386719 207.566406 205.339844 197.8125 215.09375 C 188.0625 224.84375 182.546875 238.152344 182.546875 251.945312 C 182.546875 265.734375 188.058594 279.042969 197.8125 288.796875 C 207.5625 298.546875 220.320312 303.503906 234.664062 304.0625 C 238.972656 304.0625 243.855469 303.4375 248.121094 304.0625 C 257.3125 305.40625 257.347656 314.625 259.699219 322.792969 C 262.050781 330.964844 262.085938 340.179688 271.277344 341.523438 C 275.539062 342.148438 280.421875 341.523438 284.734375 341.523438 C 299.078125 340.964844 311.835938 336.011719 321.585938 326.261719 C 331.339844 316.503906 336.292969 303.746094 336.851562 289.40625 Z M 336.851562 289.40625 " fill-opacity="1" fill-rule="nonzero"/></g><path fill="#003ed3" d="M 193.015625 251.945312 C 192.691406 229.128906 212.265625 210.527344 234.664062 210.300781 C 238.972656 210.300781 243.855469 209.675781 248.121094 210.300781 C 257.3125 211.644531 257.347656 220.859375 259.699219 229.03125 C 262.050781 237.199219 262.085938 246.417969 271.277344 247.761719 C 275.539062 248.382812 280.421875 247.761719 284.734375 247.761719 C 307.128906 247.988281 326.65625 266.636719 326.378906 289.40625 C 326.105469 311.757812 307.550781 331.378906 284.734375 331.054688 C 280.421875 331.054688 275.539062 331.675781 271.277344 331.054688 C 262.085938 329.710938 262.050781 320.492188 259.699219 312.324219 C 257.347656 304.152344 257.3125 294.933594 248.121094 293.59375 C 243.855469 292.96875 238.972656 293.59375 234.664062 293.59375 C 211.847656 293.917969 193.246094 274.34375 193.015625 251.945312 Z M 318.527344 289.40625 C 318.53125 271.015625 303.125 255.609375 284.734375 255.613281 C 280.421875 255.613281 275.539062 256.238281 271.277344 255.613281 C 262.085938 254.269531 262.050781 245.050781 259.699219 236.882812 C 257.347656 228.714844 257.3125 219.496094 248.121094 218.152344 C 243.855469 217.527344 238.972656 218.152344 234.664062 218.152344 C 216.273438 218.148438 200.867188 233.554688 200.871094 251.945312 C 200.867188 270.335938 216.273438 285.742188 234.664062 285.738281 C 238.972656 285.738281 243.855469 285.117188 248.121094 285.738281 C 257.3125 287.082031 257.347656 296.300781 259.699219 304.46875 C 262.050781 312.640625 262.085938 321.859375 271.277344 323.203125 C 275.539062 323.824219 280.421875 323.203125 284.734375 323.203125 C 303.125 323.207031 318.53125 307.800781 318.527344 289.40625 Z M 318.527344 289.40625 " fill-opacity="1" fill-rule="nonzero"/><path fill="#003ed3" d="M 211.339844 251.945312 C 211.339844 239.503906 221.996094 228.320312 234.664062 228.621094 C 238.972656 228.621094 243.855469 228 248.121094 228.621094 C 257.3125 229.964844 257.347656 239.183594 259.699219 247.351562 C 262.050781 255.523438 262.085938 264.742188 271.277344 266.085938 C 275.539062 266.707031 280.421875 266.085938 284.734375 266.085938 C 297.402344 265.78125 307.910156 277.113281 308.054688 289.40625 C 308.207031 301.929688 297.175781 312.730469 284.734375 312.730469 C 280.421875 312.730469 275.539062 313.355469 271.277344 312.730469 C 262.085938 311.386719 262.050781 302.167969 259.699219 294 C 257.347656 285.828125 257.3125 276.613281 248.121094 275.269531 C 243.855469 274.644531 238.972656 275.269531 234.664062 275.269531 C 222.222656 275.269531 211.039062 264.613281 211.339844 251.945312 Z M 300.203125 289.40625 C 300.195312 280.980469 293.160156 273.945312 284.734375 273.9375 C 280.421875 273.9375 275.539062 274.5625 271.277344 273.9375 C 262.085938 272.59375 262.050781 263.375 259.699219 255.207031 C 257.347656 247.035156 257.3125 237.820312 248.121094 236.476562 C 243.855469 235.851562 238.972656 236.476562 234.664062 236.476562 C 226.234375 236.484375 219.191406 243.527344 219.191406 251.945312 C 219.191406 260.367188 226.234375 267.40625 234.664062 267.414062 C 238.972656 267.414062 243.855469 266.792969 248.121094 267.414062 C 257.3125 268.757812 257.347656 277.976562 259.699219 286.148438 C 262.050781 294.316406 262.085938 303.535156 271.277344 304.878906 C 275.539062 305.5 280.421875 304.878906 284.734375 304.878906 C 293.160156 304.871094 300.195312 297.835938 300.203125 289.40625 Z M 300.203125 289.40625 " fill-opacity="1" fill-rule="nonzero"/><g fill="#073d56" fill-opacity="1"><g transform="translate(18.750003, 73.1952)"><g><path d="M 10.546875 -32.84375 L 1.78125 -32.84375 L 1.78125 -42.15625 L 33.578125 -42.15625 L 33.578125 -32.84375 L 24.8125 -32.84375 L 24.8125 0 L 10.546875 0 Z M 10.546875 -32.84375 "/></g></g></g><g fill="#073d56" fill-opacity="1"><g transform="translate(55.578007, 73.1952)"><g><path d="M 3.984375 -42.15625 L 17.765625 -42.15625 L 17.765625 -25.375 L 30.828125 -25.375 L 30.828125 -42.15625 L 44.671875 -42.15625 L 44.671875 0 L 30.828125 0 L 30.828125 -16.546875 L 17.765625 -16.546875 L 17.765625 0 L 3.984375 0 Z M 3.984375 -42.15625 "/></g></g></g><g fill="#073d56" fill-opacity="1"><g transform="translate(105.703195, 73.1952)"><g><path d="M 3.984375 -42.15625 L 33.578125 -42.15625 L 33.578125 -32.84375 L 18.875 -32.84375 L 18.875 -25.1875 L 32.296875 -25.1875 L 32.296875 -17.46875 L 18.875 -17.46875 L 18.875 -9.3125 L 33.578125 -9.3125 L 33.578125 0 L 3.984375 0 Z M 3.984375 -42.15625 "/></g></g></g><g fill="#073d56" fill-opacity="1"><g transform="translate(18.750003, 129.445196)"><g><path d="M 23.84375 0.984375 C 19.75 0.984375 16.035156 0.015625 12.703125 -1.921875 C 9.378906 -3.867188 6.75 -6.523438 4.8125 -9.890625 C 2.875 -13.265625 1.90625 -16.992188 1.90625 -21.078125 C 1.90625 -25.242188 2.84375 -29 4.71875 -32.34375 C 6.59375 -35.695312 9.164062 -38.320312 12.4375 -40.21875 C 15.707031 -42.125 19.382812 -43.078125 23.46875 -43.078125 C 25.675781 -43.078125 27.84375 -42.8125 29.96875 -42.28125 C 32.09375 -41.75 33.910156 -40.992188 35.421875 -40.015625 L 33.765625 -30.515625 C 30.828125 -31.617188 28.171875 -32.171875 25.796875 -32.171875 C 22.523438 -32.171875 20.007812 -31.21875 18.25 -29.3125 C 16.5 -27.414062 15.625 -24.691406 15.625 -21.140625 C 15.625 -17.671875 16.550781 -14.960938 18.40625 -13.015625 C 20.269531 -11.078125 22.859375 -10.109375 26.171875 -10.109375 C 27.429688 -10.109375 28.613281 -10.226562 29.71875 -10.46875 C 30.820312 -10.71875 32.171875 -11.171875 33.765625 -11.828125 L 35.484375 -2.140625 C 31.929688 -0.0546875 28.050781 0.984375 23.84375 0.984375 Z M 23.84375 0.984375 "/></g></g></g><g fill="#073d56" fill-opacity="1"><g transform="translate(57.23249, 129.445196)"><g><path d="M 3.984375 -42.15625 L 17.21875 -42.15625 L 17.21875 -9.3125 L 31.859375 -9.3125 L 31.859375 0 L 3.984375 0 Z M 3.984375 -42.15625 "/></g></g></g><g fill="#073d56" fill-opacity="1"><g transform="translate(91.67067, 129.445196)"><g><path d="M 3.984375 -42.15625 L 18.140625 -42.15625 L 18.140625 0 L 3.984375 0 Z M 3.984375 -42.15625 "/></g></g></g><g fill="#073d56" fill-opacity="1"><g transform="translate(115.262761, 129.445196)"><g><path d="M 3.984375 -42.15625 L 16.734375 -42.15625 L 27.265625 -21.6875 L 37.5625 -42.15625 L 50.3125 -42.15625 L 50.3125 0 L 37.5625 0 L 37.5625 -22.484375 L 29.78125 -7.78125 L 24.578125 -7.78125 L 16.734375 -22.484375 L 16.734375 0 L 3.984375 0 Z M 3.984375 -42.15625 "/></g></g></g><g fill="#073d56" fill-opacity="1"><g transform="translate(171.086751, 129.445196)"><g><path d="M 19.921875 0.734375 C 17.378906 0.734375 15.023438 0.691406 12.859375 0.609375 C 10.703125 0.523438 7.742188 0.34375 3.984375 0.0625 L 3.984375 -42.15625 L 25.0625 -42.15625 C 28.039062 -42.15625 30.722656 -41.738281 33.109375 -40.90625 C 35.503906 -40.070312 37.375 -38.875 38.71875 -37.3125 C 40.070312 -35.757812 40.75 -33.960938 40.75 -31.921875 C 40.75 -29.390625 40.195312 -27.398438 39.09375 -25.953125 C 37.988281 -24.503906 36.316406 -23.492188 34.078125 -22.921875 C 39.796875 -22.023438 42.65625 -18.65625 42.65625 -12.8125 C 42.65625 -8.757812 40.804688 -5.488281 37.109375 -3 C 33.410156 -0.507812 27.679688 0.734375 19.921875 0.734375 Z M 22.484375 -25.5 C 24.078125 -25.5 25.394531 -25.882812 26.4375 -26.65625 C 27.476562 -27.4375 28 -28.4375 28 -29.65625 C 28 -32.5625 26.203125 -34.015625 22.609375 -34.015625 L 17.65625 -34.015625 L 17.65625 -25.5 Z M 22.25 -8.890625 C 24.488281 -8.890625 26.210938 -9.304688 27.421875 -10.140625 C 28.628906 -10.972656 29.234375 -12.148438 29.234375 -13.671875 C 29.234375 -15.296875 28.679688 -16.546875 27.578125 -17.421875 C 26.472656 -18.304688 24.898438 -18.75 22.859375 -18.75 L 17.59375 -18.75 L 17.59375 -9.0625 C 19.425781 -8.945312 20.976562 -8.890625 22.25 -8.890625 Z M 22.25 -8.890625 "/></g></g></g><g fill="#073d56" fill-opacity="1"><g transform="translate(216.738707, 129.445196)"><g><path d="M 17.03125 0.984375 C 11.269531 0.984375 6.410156 -0.078125 2.453125 -2.203125 L 5.515625 -11.703125 C 9.722656 -10.191406 13.484375 -9.4375 16.796875 -9.4375 C 18.585938 -9.4375 19.898438 -9.648438 20.734375 -10.078125 C 21.578125 -10.503906 22 -11.148438 22 -12.015625 C 22 -12.585938 21.773438 -13.085938 21.328125 -13.515625 C 20.878906 -13.941406 19.976562 -14.421875 18.625 -14.953125 C 17.28125 -15.484375 15.257812 -16.132812 12.5625 -16.90625 C 9.25 -17.894531 6.671875 -19.5 4.828125 -21.71875 C 2.992188 -23.945312 2.078125 -26.515625 2.078125 -29.421875 C 2.078125 -33.910156 3.554688 -37.304688 6.515625 -39.609375 C 9.484375 -41.921875 13.476562 -43.078125 18.5 -43.078125 C 21.113281 -43.078125 23.6875 -42.800781 26.21875 -42.25 C 28.757812 -41.695312 31.007812 -40.890625 32.96875 -39.828125 L 29.65625 -30.578125 C 27.375 -31.359375 25.382812 -31.921875 23.6875 -32.265625 C 21.988281 -32.609375 20.34375 -32.78125 18.75 -32.78125 C 16.050781 -32.78125 14.703125 -32.046875 14.703125 -30.578125 C 14.703125 -29.835938 15.140625 -29.210938 16.015625 -28.703125 C 16.898438 -28.191406 18.710938 -27.550781 21.453125 -26.78125 C 25.742188 -25.632812 28.988281 -23.882812 31.1875 -21.53125 C 33.394531 -19.1875 34.5 -16.378906 34.5 -13.109375 C 34.5 -8.578125 33.023438 -5.09375 30.078125 -2.65625 C 27.140625 -0.226562 22.789062 0.984375 17.03125 0.984375 Z M 17.03125 0.984375 "/></g></g></g><g fill="#073d56" fill-opacity="1"><g transform="translate(254.485873, 129.445196)"><g><path d="M 3.984375 -42.15625 L 18.140625 -42.15625 L 18.140625 0 L 3.984375 0 Z M 3.984375 -42.15625 "/></g></g></g><g fill="#073d56" fill-opacity="1"><g transform="translate(278.077959, 129.445196)"><g><path d="M 3.984375 -42.15625 L 22.3125 -42.15625 C 26.71875 -42.15625 30.625 -41.273438 34.03125 -39.515625 C 37.445312 -37.765625 40.101562 -35.316406 42 -32.171875 C 43.90625 -29.023438 44.859375 -25.429688 44.859375 -21.390625 C 44.859375 -17.140625 43.925781 -13.398438 42.0625 -10.171875 C 40.207031 -6.941406 37.570312 -4.4375 34.15625 -2.65625 C 30.75 -0.882812 26.800781 0 22.3125 0 L 3.984375 0 Z M 21.6875 -11.03125 C 24.757812 -11.03125 27.097656 -12 28.703125 -13.9375 C 30.316406 -15.882812 31.125 -18.410156 31.125 -21.515625 C 31.125 -24.453125 30.335938 -26.785156 28.765625 -28.515625 C 27.191406 -30.253906 24.832031 -31.125 21.6875 -31.125 L 17.53125 -31.125 L 17.53125 -11.03125 Z M 21.6875 -11.03125 "/></g></g></g><g fill="#073d56" fill-opacity="1"><g transform="translate(326.364836, 129.445196)"><g><path d="M 3.984375 -42.15625 L 33.578125 -42.15625 L 33.578125 -32.84375 L 18.875 -32.84375 L 18.875 -25.1875 L 32.296875 -25.1875 L 32.296875 -17.46875 L 18.875 -17.46875 L 18.875 -9.3125 L 33.578125 -9.3125 L 33.578125 0 L 3.984375 0 Z M 3.984375 -42.15625 "/></g></g></g><g fill="#073d56" fill-opacity="1"><g transform="translate(18.750003, 185.695192)"><g><path d="M 11.953125 -42.15625 L 30.578125 -42.15625 L 42.78125 0 L 28.375 0 L 26.78125 -8.09375 L 15.875 -8.09375 L 14.09375 0 L 0.3125 0 Z M 25.3125 -15.625 L 21.328125 -34.078125 L 17.15625 -15.625 Z M 25.3125 -15.625 "/></g></g></g><g fill="#073d56" fill-opacity="1"><g transform="translate(63.053847, 185.695192)"><g><path d="M 23.59375 0.984375 C 19.46875 0.984375 15.75 -0.00390625 12.4375 -1.984375 C 9.125 -3.972656 6.53125 -6.679688 4.65625 -10.109375 C 2.78125 -13.546875 1.84375 -17.328125 1.84375 -21.453125 C 1.84375 -25.410156 2.789062 -29.039062 4.6875 -32.34375 C 6.582031 -35.65625 9.222656 -38.269531 12.609375 -40.1875 C 16.003906 -42.113281 19.867188 -43.078125 24.203125 -43.078125 C 26.578125 -43.078125 28.875 -42.8125 31.09375 -42.28125 C 33.320312 -41.75 35.335938 -40.992188 37.140625 -40.015625 L 33.09375 -30.515625 C 30.3125 -31.660156 27.71875 -32.234375 25.3125 -32.234375 C 22.164062 -32.234375 19.734375 -31.222656 18.015625 -29.203125 C 16.296875 -27.179688 15.4375 -24.535156 15.4375 -21.265625 C 15.4375 -19.140625 15.820312 -17.226562 16.59375 -15.53125 C 17.375 -13.832031 18.46875 -12.492188 19.875 -11.515625 C 21.289062 -10.535156 22.898438 -10.046875 24.703125 -10.046875 C 25.679688 -10.046875 26.492188 -10.128906 27.140625 -10.296875 L 27.140625 -20.15625 L 37.75 -21.390625 L 37.75 -2.203125 C 33.132812 -0.078125 28.414062 0.984375 23.59375 0.984375 Z M 23.59375 0.984375 "/></g></g></g><g fill="#073d56" fill-opacity="1"><g transform="translate(104.906596, 185.695192)"><g><path d="M 3.984375 -42.15625 L 33.578125 -42.15625 L 33.578125 -32.84375 L 18.875 -32.84375 L 18.875 -25.1875 L 32.296875 -25.1875 L 32.296875 -17.46875 L 18.875 -17.46875 L 18.875 -9.3125 L 33.578125 -9.3125 L 33.578125 0 L 3.984375 0 Z M 3.984375 -42.15625 "/></g></g></g><g fill="#073d56" fill-opacity="1"><g transform="translate(142.837596, 185.695192)"><g><path d="M 3.984375 -42.15625 L 16.296875 -42.15625 L 33.09375 -19.421875 L 33.09375 -42.15625 L 44.0625 -42.15625 L 44.0625 0 L 31.8125 0 L 14.890625 -21.9375 L 14.890625 0 L 3.984375 0 Z M 3.984375 -42.15625 "/></g></g></g><g fill="#073d56" fill-opacity="1"><g transform="translate(192.350009, 185.695192)"><g><path d="M 23.84375 0.984375 C 19.75 0.984375 16.035156 0.015625 12.703125 -1.921875 C 9.378906 -3.867188 6.75 -6.523438 4.8125 -9.890625 C 2.875 -13.265625 1.90625 -16.992188 1.90625 -21.078125 C 1.90625 -25.242188 2.84375 -29 4.71875 -32.34375 C 6.59375 -35.695312 9.164062 -38.320312 12.4375 -40.21875 C 15.707031 -42.125 19.382812 -43.078125 23.46875 -43.078125 C 25.675781 -43.078125 27.84375 -42.8125 29.96875 -42.28125 C 32.09375 -41.75 33.910156 -40.992188 35.421875 -40.015625 L 33.765625 -30.515625 C 30.828125 -31.617188 28.171875 -32.171875 25.796875 -32.171875 C 22.523438 -32.171875 20.007812 -31.21875 18.25 -29.3125 C 16.5 -27.414062 15.625 -24.691406 15.625 -21.140625 C 15.625 -17.671875 16.550781 -14.960938 18.40625 -13.015625 C 20.269531 -11.078125 22.859375 -10.109375 26.171875 -10.109375 C 27.429688 -10.109375 28.613281 -10.226562 29.71875 -10.46875 C 30.820312 -10.71875 32.171875 -11.171875 33.765625 -11.828125 L 35.484375 -2.140625 C 31.929688 -0.0546875 28.050781 0.984375 23.84375 0.984375 Z M 23.84375 0.984375 "/></g></g></g><g fill="#073d56" fill-opacity="1"><g transform="translate(230.832493, 185.695192)"><g><path d="M 11.953125 -11.703125 L -0.1875 -42.15625 L 12.625 -42.15625 L 18.5625 -23.21875 L 24.390625 -42.15625 L 37.875 -42.15625 L 25.125 -11.703125 L 25.125 0 L 11.953125 0 Z M 11.953125 -11.703125 "/></g></g></g></svg>